<svg width="164" height="37" viewBox="0 0 164 37" fill="none" xmlns="http://www.w3.org/2000/svg">
<path fill-rule="evenodd" clip-rule="evenodd" d="M38.2595 3.06239C37.3194 2.59024 36.1561 2.45109 34.8561 2.68757C34.0546 2.83396 33.2 3.12352 32.3138 3.56511C31.463 3.99061 30.6484 4.52389 29.8766 5.14244L33.0075 6.71574C33.7793 6.0972 34.5939 5.56391 35.4438 5.13922C36.33 4.69683 37.1836 4.40726 37.9861 4.26087C39.2861 4.02439 40.4494 4.16354 41.3895 4.6357L38.2595 3.06239Z" fill="#F0A72E"/>
<mask id="mask0" mask-type="alpha" maskUnits="userSpaceOnUse" x="0" y="0" width="31" height="35">
<path fill-rule="evenodd" clip-rule="evenodd" d="M0 0.609169H30.3026V34.2347H0V0.609169Z" fill="white"/>
</mask>
<g mask="url(#mask0)">
<path fill-rule="evenodd" clip-rule="evenodd" d="M27.1726 1.17282C26.0865 0.626667 24.7409 0.466602 23.2382 0.74008C22.3102 0.908993 21.3217 1.2436 20.2961 1.75597C18.5898 2.60858 16.9876 3.84728 15.5983 5.31199C13.0421 8.00736 11.2065 11.4677 10.762 14.6891C9.99487 14.8387 9.17285 15.1226 8.32945 15.5441C6.85838 16.2785 5.47751 17.345 4.28075 18.6063C1.71614 21.3064 -0.00971918 24.8971 -0.000420372 28.0228C0.00794856 30.3023 0.9369 31.9069 2.4368 32.6606L5.56678 34.2347C4.06595 33.4803 3.137 31.8756 3.12956 29.5961C3.11933 26.4704 4.84612 22.8798 7.4098 20.1796C8.60749 18.9183 9.98743 17.8518 11.4594 17.1174C12.3019 16.6959 13.1248 16.412 13.8911 16.2624C14.3356 13.041 16.1721 9.58067 18.7283 6.8853C20.1176 5.42058 21.7188 4.18188 23.4261 3.32928C24.4508 2.81691 25.4393 2.4823 26.3673 2.31338C27.8709 2.0391 29.2155 2.19997 30.3025 2.74612L27.1726 1.17282Z" fill="#F0A72E"/>
</g>
<path fill-rule="evenodd" clip-rule="evenodd" d="M23.4258 3.32944C28.2668 0.911568 32.2895 2.44465 33.0073 6.71574C33.7791 6.0972 34.5937 5.56392 35.4436 5.13922C40.0577 2.83476 43.8125 4.68557 43.8274 9.27115C43.8423 13.8575 40.1116 19.4462 35.4975 21.7506L11.5131 33.729C6.89254 36.0366 3.14419 34.1826 3.12932 29.5962C3.11444 25.0098 6.83768 19.4252 11.4583 17.1176C12.3026 16.6961 13.1246 16.4122 13.8908 16.2625C14.5771 11.2901 18.5774 5.75052 23.4258 3.32944Z" fill="#FFCA00"/>
<path fill-rule="evenodd" clip-rule="evenodd" d="M62.7052 5.31441C61.7651 4.84225 60.6018 4.7031 59.3019 4.93958C58.4994 5.08597 57.6457 5.37554 56.7586 5.81712C55.9087 6.24182 55.0942 6.77591 54.3224 7.39445L57.4523 8.96775C58.2241 8.34921 59.0387 7.81512 59.8896 7.39123C60.7748 6.94804 61.6294 6.65928 62.4309 6.51288C63.7318 6.27641 64.8942 6.41556 65.8343 6.88771L62.7052 5.31441Z" fill="#D43E3E"/>
<path fill-rule="evenodd" clip-rule="evenodd" d="M51.6138 3.41977C50.5277 2.87361 49.1821 2.71274 47.6795 2.98622C46.7514 3.15514 45.7648 3.48974 44.741 4.00131C43.0403 4.8507 41.4427 6.08618 40.0563 7.54848C37.4982 10.2463 35.6589 13.713 35.2135 16.9376C34.4398 17.0905 33.6243 17.3712 32.7744 17.7959C31.3052 18.5294 29.9262 19.596 28.7294 20.8564C26.1648 23.5566 24.4352 27.1488 24.4454 30.2745C24.4529 32.5532 25.3837 34.1563 26.8827 34.9108L30.0126 36.4833C28.5127 35.7296 27.5819 34.1265 27.5745 31.8478C27.5643 28.7221 29.2948 25.1299 31.8585 22.4297C33.0561 21.1685 34.4352 20.1027 35.9034 19.3692C36.7552 18.9445 37.5698 18.6638 38.3434 18.5109C38.7889 15.2855 40.6282 11.8196 43.1863 9.12179C44.5727 7.65948 46.1703 6.42401 47.871 5.57381C48.8939 5.06305 49.8814 4.72844 50.8085 4.55953C52.3121 4.28605 53.6567 4.44692 54.7438 4.99307L51.6138 3.41977Z" fill="#D43E3E"/>
<path fill-rule="evenodd" clip-rule="evenodd" d="M47.8706 5.57397C52.7116 3.1569 56.7352 4.69643 57.4521 8.96751C58.2239 8.34897 59.0385 7.81569 59.8893 7.39099C64.5034 5.08653 68.2573 6.93734 68.2722 11.5229C68.2871 16.1093 64.5573 21.6979 59.9433 24.0024L35.9579 35.9807C31.3448 38.2852 27.5899 36.4344 27.5751 31.848C27.5602 27.2616 31.2899 21.673 35.904 19.3685C36.7548 18.9446 37.5703 18.6639 38.3431 18.5103C39.0293 13.5386 43.0297 7.99184 47.8706 5.57397Z" fill="#FA7564"/>
<path d="M84.6597 26.24C83.7397 26.24 82.9597 26.0533 82.3197 25.68C81.6931 25.3067 81.1731 24.7533 80.7597 24.02L82.3597 22.84C82.6264 23.32 82.9331 23.6733 83.2797 23.9C83.6264 24.1133 83.9997 24.22 84.3997 24.22C85.0131 24.22 85.4731 24.0333 85.7797 23.66C86.0864 23.2867 86.2397 22.6333 86.2397 21.7V12.92H88.5597V21.9C88.5597 22.5 88.4864 23.0667 88.3397 23.6C88.1931 24.12 87.9597 24.58 87.6397 24.98C87.3197 25.3667 86.9131 25.6733 86.4197 25.9C85.9264 26.1267 85.3397 26.24 84.6597 26.24ZM95.2927 26.24C94.6794 26.24 94.0927 26.1267 93.5327 25.9C92.9727 25.6733 92.4727 25.34 92.0327 24.9C91.6061 24.46 91.2661 23.92 91.0127 23.28C90.7594 22.64 90.6327 21.9133 90.6327 21.1C90.6327 20.2867 90.7594 19.56 91.0127 18.92C91.2661 18.28 91.6061 17.74 92.0327 17.3C92.4727 16.86 92.9727 16.5267 93.5327 16.3C94.0927 16.06 94.6794 15.94 95.2927 15.94C95.9061 15.94 96.4927 16.06 97.0527 16.3C97.6261 16.5267 98.1261 16.86 98.5527 17.3C98.9794 17.74 99.3194 18.28 99.5727 18.92C99.8394 19.56 99.9727 20.2867 99.9727 21.1C99.9727 21.9133 99.8394 22.64 99.5727 23.28C99.3194 23.92 98.9794 24.46 98.5527 24.9C98.1261 25.34 97.6261 25.6733 97.0527 25.9C96.4927 26.1267 95.9061 26.24 95.2927 26.24ZM95.2927 24.36C96.0127 24.36 96.5794 24.0667 96.9927 23.48C97.4061 22.88 97.6127 22.0867 97.6127 21.1C97.6127 20.1 97.4061 19.3067 96.9927 18.72C96.5794 18.12 96.0127 17.82 95.2927 17.82C94.5727 17.82 94.0061 18.12 93.5927 18.72C93.1927 19.3067 92.9927 20.1 92.9927 21.1C92.9927 22.0867 93.1927 22.88 93.5927 23.48C94.0061 24.0667 94.5727 24.36 95.2927 24.36ZM101.9 26V16.18H104.2V26H101.9ZM103.06 14.46C102.646 14.46 102.306 14.34 102.04 14.1C101.773 13.86 101.64 13.5467 101.64 13.16C101.64 12.7733 101.773 12.46 102.04 12.22C102.306 11.9667 102.646 11.84 103.06 11.84C103.473 11.84 103.813 11.9667 104.08 12.22C104.346 12.46 104.48 12.7733 104.48 13.16C104.48 13.5467 104.346 13.86 104.08 14.1C103.813 14.34 103.473 14.46 103.06 14.46ZM106.784 26V16.18H108.684L108.844 17.5H108.924C109.364 17.0733 109.837 16.7067 110.344 16.4C110.864 16.0933 111.464 15.94 112.144 15.94C113.197 15.94 113.964 16.28 114.444 16.96C114.924 17.6267 115.164 18.5867 115.164 19.84V26H112.864V20.14C112.864 19.3267 112.744 18.7533 112.504 18.42C112.264 18.0867 111.871 17.92 111.324 17.92C110.897 17.92 110.517 18.0267 110.184 18.24C109.864 18.44 109.497 18.74 109.084 19.14V26H106.784ZM117.826 26V12.92H120.146V26H117.826ZM125.76 26V14.88H121.98V12.92H131.86V14.88H128.08V26H125.76Z" fill="white"/>
</svg>
